Coordinates
version=1
nRows=9
nColumns=24
inDegrees=yes

Units are S.I. units (second, meters, Newtons, ...)
Angles are in degrees.

endheader
time	pelvis_tilt	pelvis_list	pelvis_rotation	pelvis_tx	pelvis_ty	pelvis_tz	hip_flexion_r	hip_adduction_r	hip_rotation_r	knee_angle_r	ankle_angle_r	subtalar_angle_r	mtp_angle_r	hip_flexion_l	hip_adduction_l	hip_rotation_l	knee_angle_l	ankle_angle_l	subtalar_angle_l	mtp_angle_l	lumbar_extension	lumbar_bending	lumbar_rotation
      1.17383333	     -0.34370857	      3.86623308	      0.72624525	      0.11869961	      1.00359059	      0.27677652	     21.66300910	     -2.65773492	     -1.84992695	    -70.11238800	     -3.74718774	    -17.05114190	     -5.12974364	      8.56834334	      7.84652353	      0.50919362	    -11.88902651	      3.09549089	     -6.37256295	      3.48071260	     -0.38371814	     -1.91026797	      1.90869043
      1.17800000	     -0.32849341	      3.75746646	      0.67524636	      0.12370586	      1.00436439	      0.27674472	     22.21694866	     -2.47755142	     -1.71882202	    -69.93623720	     -3.13934321	    -17.30589991	     -5.14011523	      8.00100826	      7.73139855	      0.57286904	    -11.44911423	      3.13435292	     -6.40749581	      3.46938500	     -0.42243164	     -1.77813754	      1.89108207
      1.18216667	     -0.30324182	      3.64005214	      0.62698296	      0.12870984	      1.00512860	      0.27671342	     22.73724354	     -2.28871408	     -1.59407457	    -69.68538482	     -2.52777826	    -17.54112957	     -5.15221124	      7.42350083	      7.60711369	      0.64322613	    -11.00916435	      3.17334383	     -6.44648642	      3.45547388	     -0.47234236	     -1.63408249	      1.87232481
      1.18633333	     -0.27564028	      3.51791923	      0.57889523	      0.13370934	      1.00588237	      0.27669659	     23.23309054	     -2.09340008	     -1.47487522	    -69.36110769	     -1.91768270	    -17.77111537	     -5.17050940	      6.84101071	      7.47865600	      0.73278656	    -10.56268679	      3.20161019	     -6.50572838	      3.43540720	     -0.53420252	     -1.48491293	      1.85461591
      1.19050000	     -0.22520616	      3.41366271	      0.53358207	      0.13873612	      1.00663481	      0.27665909	     23.67842461	     -1.92753295	     -1.36364216	    -68.96586256	     -1.33013921	    -17.99358118	     -5.21594618	      6.21497081	      7.37486146	      0.86205868	    -10.07842008	      3.20705816	     -6.65397156	      3.39127816	     -0.60241299	     -1.37325263	      1.83960959
      1.19466667	     -0.22652578	      3.25375732	      0.49881454	      0.14374007	      1.00730580	      0.27664293	     24.15199020	     -1.69601840	     -1.26925610	    -68.48300029	     -0.72775283	    -18.12766359	     -5.22906822	      5.68911837	      7.20072312	      0.91348128	     -9.67956256	      3.24475295	     -6.66596773	      3.37272255	     -0.61254316	     -1.17238441	      1.81393721
      1.19883333	     -0.21508111	      3.11301335	      0.46328347	      0.14873702	      1.00793808	      0.27662181	     24.59466126	     -1.49053814	     -1.17697801	    -67.94515242	     -0.12621134	    -18.28614537	     -5.24580909	      5.14515468	      7.05036988	      0.99047919	     -9.27064354	      3.29180156	     -6.70462411	      3.35170707	     -0.64954435	     -0.99966192	      1.78702865
      1.20300000	     -0.15520897	      2.98831066	      0.42633199	      0.15374736	      1.00860087	      0.27659407	     24.95961165	     -1.30829060	     -1.08910839	    -67.33976588	      0.44012672	    -18.47358232	     -5.29869988	      4.51989249	      6.92347405	      1.13824897	     -8.80375625	      3.30813581	     -6.85191985	      3.29962911	     -0.74832749	     -0.85915352	      1.75472952
      1.20716667	     -0.12693555	      2.85169848	      0.39916485	      0.15873574	      1.00917762	      0.27656606	     25.33698810	     -1.11619785	     -1.01175114	    -66.66871540	      1.01451177	    -18.60450679	     -5.35204774	      3.95497416	      6.78005054	      1.24874361	     -8.38374386	      3.32902082	     -6.95879727	      3.24677757	     -0.80309318	     -0.69372997	      1.72304785
